<svg xmlns="http://www.w3.org/2000/svg" width="175.8" height="27.537" viewBox="0 0 175.8 27.537"><defs><style>.a,.b{fill:#fff;}.b{fill-rule:evenodd;}</style></defs><path class="a" d="M-4208.566-399.826H-4217V-406h24.665v6.174h-8.437v21.364h-7.793Z" transform="translate(4217.001 406)"/><path class="a" d="M-1661.808-406v27.537h-6.418l-12.164-14.67v14.67H-1688V-406h6.418l12.134,14.67V-406Z" transform="translate(1765.295 406)"/><path class="a" d="M254.8-387.907v9.444h-8.038v-9.444l-6.846-12.072h-7.121v6.051h5.349l3.393,6.021h-8.741v9.444H225V-406h19.5l6.54,11.492L257.55-406h7.488Z" transform="translate(-89.238 406)"/><path class="b" d="M-740.216-406a13.755,13.755,0,0,1,13.754,13.753,13.761,13.761,0,0,1-13.754,13.784A13.787,13.787,0,0,1-754-392.247,13.781,13.781,0,0,1-740.216-406Zm0,7.06a6.691,6.691,0,0,1,6.693,6.693,6.718,6.718,0,0,1-6.693,6.724,6.717,6.717,0,0,1-6.693-6.724A6.691,6.691,0,0,1-740.216-398.94Z" transform="translate(859.841 406)"/></svg>